<svg width="22" height="22" viewBox="0 0 22 22" fill="none" xmlns="http://www.w3.org/2000/svg">
<path d="M8.25 2.75H3.66667C3.16041 2.75 2.75 3.16041 2.75 3.66667V10.0833C2.75 10.5896 3.16041 11 3.66667 11H8.25C8.75626 11 9.16667 10.5896 9.16667 10.0833V3.66667C9.16667 3.16041 8.75626 2.75 8.25 2.75Z" fill="#B7DDB5" stroke="#1A8915" stroke-width="1.58889" stroke-linecap="round" stroke-linejoin="round"/>
<path d="M18.3286 2.75H13.7453C13.239 2.75 12.8286 3.16041 12.8286 3.66667V6.41667C12.8286 6.92293 13.239 7.33333 13.7453 7.33333H18.3286C18.8349 7.33333 19.2453 6.92293 19.2453 6.41667V3.66667C19.2453 3.16041 18.8349 2.75 18.3286 2.75Z" stroke="#1A8915" stroke-width="1.58889" stroke-linecap="round" stroke-linejoin="round"/>
<path d="M18.3286 11H13.7453C13.239 11 12.8286 11.4104 12.8286 11.9167V18.3333C12.8286 18.8396 13.239 19.25 13.7453 19.25H18.3286C18.8349 19.25 19.2453 18.8396 19.2453 18.3333V11.9167C19.2453 11.4104 18.8349 11 18.3286 11Z" fill="#B7DDB5" stroke="#1A8915" stroke-width="1.58889" stroke-linecap="round" stroke-linejoin="round"/>
<path d="M8.25 14.667H3.66667C3.16041 14.667 2.75 15.0774 2.75 15.5837V18.3337C2.75 18.8399 3.16041 19.2503 3.66667 19.2503H8.25C8.75626 19.2503 9.16667 18.8399 9.16667 18.3337V15.5837C9.16667 15.0774 8.75626 14.667 8.25 14.667Z" stroke="#1A8915" stroke-width="1.58889" stroke-linecap="round" stroke-linejoin="round"/>
</svg>
