<svg width="23" height="19" viewBox="0 0 23 19" fill="none" xmlns="http://www.w3.org/2000/svg">
<rect x="1.64906" y="3.41663" width="14.1667" height="14.1667" rx="4.25524" stroke="#111220" stroke-width="1.38796"/>
<mask id="path-2-outside-1_662_11494" maskUnits="userSpaceOnUse" x="4.31836" y="-0.277344" width="18" height="15" fill="black">
<rect fill="white" x="4.31836" y="-0.277344" width="18" height="15"/>
<path fill-rule="evenodd" clip-rule="evenodd" d="M16.3027 2.92974C16.0266 2.65363 15.5789 2.65363 15.3028 2.92974C15.0267 3.20585 15.0267 3.65352 15.3028 3.92963L17.631 6.25787H10.8535C9.91593 6.25787 9.01675 6.63032 8.35378 7.29329C7.69081 7.95626 7.31836 8.85544 7.31836 9.79302V11.2071C7.31836 11.5976 7.63491 11.9141 8.02539 11.9141C8.41587 11.9141 8.73242 11.5976 8.73242 11.2071V9.79302C8.73242 9.23047 8.95589 8.69096 9.35368 8.29318C9.75146 7.8954 10.291 7.67193 10.8535 7.67193H17.6309L15.3028 10.0001C15.0267 10.2762 15.0267 10.7238 15.3028 10.9999C15.5789 11.2761 16.0266 11.2761 16.3027 10.9999L19.8378 7.46479C20.1139 7.18868 20.1139 6.74101 19.8378 6.4649L16.3027 2.92974Z"/>
</mask>
<path fill-rule="evenodd" clip-rule="evenodd" d="M16.3027 2.92974C16.0266 2.65363 15.5789 2.65363 15.3028 2.92974C15.0267 3.20585 15.0267 3.65352 15.3028 3.92963L17.631 6.25787H10.8535C9.91593 6.25787 9.01675 6.63032 8.35378 7.29329C7.69081 7.95626 7.31836 8.85544 7.31836 9.79302V11.2071C7.31836 11.5976 7.63491 11.9141 8.02539 11.9141C8.41587 11.9141 8.73242 11.5976 8.73242 11.2071V9.79302C8.73242 9.23047 8.95589 8.69096 9.35368 8.29318C9.75146 7.8954 10.291 7.67193 10.8535 7.67193H17.6309L15.3028 10.0001C15.0267 10.2762 15.0267 10.7238 15.3028 10.9999C15.5789 11.2761 16.0266 11.2761 16.3027 10.9999L19.8378 7.46479C20.1139 7.18868 20.1139 6.74101 19.8378 6.4649L16.3027 2.92974Z" fill="#111220"/>
<path d="M15.3028 2.92974L16.8026 4.42958L16.8026 4.42958L15.3028 2.92974ZM16.3027 2.92974L14.8028 4.42958L14.8028 4.42958L16.3027 2.92974ZM15.3028 3.92963L16.8026 2.42979L16.8026 2.42979L15.3028 3.92963ZM17.631 6.25787V8.37896C18.4889 8.37896 19.2624 7.86217 19.5907 7.06957C19.919 6.27697 19.7375 5.36465 19.1309 4.75803L17.631 6.25787ZM8.35378 7.29329L6.85394 5.79345H6.85394L8.35378 7.29329ZM9.35368 8.29318L10.8535 9.79302L10.8535 9.79302L9.35368 8.29318ZM17.6309 7.67193L19.1308 9.17177C19.7374 8.56514 19.9189 7.65282 19.5905 6.86022C19.2622 6.06762 18.4888 5.55083 17.6309 5.55083V7.67193ZM15.3028 10.0001L16.8026 11.4999L16.8026 11.4999L15.3028 10.0001ZM15.3028 10.9999L16.8026 9.50011L16.8026 9.50011L15.3028 10.9999ZM16.3027 10.9999L14.8028 9.50011L14.8028 9.50011L16.3027 10.9999ZM19.8378 6.4649L18.338 7.96474L18.338 7.96474L19.8378 6.4649ZM16.8026 4.42958C16.2504 4.98181 15.3551 4.98181 14.8028 4.42958L17.8025 1.4299C16.6981 0.325449 14.9074 0.325449 13.8029 1.4299L16.8026 4.42958ZM16.8026 2.42979C17.3549 2.98202 17.3549 3.87736 16.8026 4.42958L13.8029 1.4299C12.6985 2.53435 12.6985 4.32502 13.8029 5.42947L16.8026 2.42979ZM19.1309 4.75803L16.8026 2.42979L13.8029 5.42947L16.1312 7.75771L19.1309 4.75803ZM10.8535 8.37896H17.631V4.13677H10.8535V8.37896ZM9.85362 8.79313C10.1188 8.52794 10.4785 8.37896 10.8535 8.37896V4.13677C9.35339 4.13677 7.9147 4.7327 6.85394 5.79345L9.85362 8.79313ZM9.43945 9.79302C9.43945 9.41799 9.58843 9.05832 9.85362 8.79313L6.85394 5.79345C5.79319 6.8542 5.19727 8.29289 5.19727 9.79302H9.43945ZM9.43945 11.2071V9.79302H5.19727V11.2071H9.43945ZM8.02539 9.79302C8.80635 9.79302 9.43945 10.4261 9.43945 11.2071H5.19727C5.19727 12.769 6.46346 14.0352 8.02539 14.0352V9.79302ZM6.61133 11.2071C6.61133 10.4261 7.24443 9.79302 8.02539 9.79302V14.0352C9.58732 14.0352 10.8535 12.769 10.8535 11.2071H6.61133ZM6.61133 9.79302V11.2071H10.8535V9.79302H6.61133ZM7.85384 6.79334C7.05827 7.58891 6.61133 8.66792 6.61133 9.79302H10.8535L10.8535 9.79302L7.85384 6.79334ZM10.8535 5.55083C9.72842 5.55083 8.6494 5.99778 7.85384 6.79334L10.8535 9.79302H10.8535V5.55083ZM17.6309 5.55083H10.8535V9.79302H17.6309V5.55083ZM16.8026 11.4999L19.1308 9.17177L16.1311 6.17209L13.8029 8.50021L16.8026 11.4999ZM16.8026 9.50011C17.3549 10.0523 17.3549 10.9477 16.8026 11.4999L13.8029 8.50021C12.6985 9.60466 12.6985 11.3953 13.8029 12.4998L16.8026 9.50011ZM14.8028 9.50011C15.3551 8.94788 16.2504 8.94788 16.8026 9.50011L13.8029 12.4998C14.9074 13.6042 16.6981 13.6042 17.8025 12.4998L14.8028 9.50011ZM18.338 5.96495L14.8028 9.50011L17.8025 12.4998L21.3377 8.96463L18.338 5.96495ZM18.338 7.96474C17.7858 7.41251 17.7858 6.51718 18.338 5.96495L21.3377 8.96463C22.4421 7.86018 22.4421 6.06951 21.3377 4.96506L18.338 7.96474ZM14.8028 4.42958L18.338 7.96474L21.3377 4.96506L17.8025 1.4299L14.8028 4.42958Z" fill="white" mask="url(#path-2-outside-1_662_11494)"/>
</svg>
