<svg width="16" height="16" viewBox="0 0 22 22" fill="none" xmlns="http://www.w3.org/2000/svg">
  <path d="M13.2915 20.1666H16.4998C16.9861 20.1666 17.4524 19.9734 17.7962 19.6296C18.14 19.2858 18.3332 18.8195 18.3332 18.3333V6.41659L13.7498 1.83325H5.49984C5.01361 1.83325 4.54729 2.02641 4.20347 2.37022C3.85966 2.71404 3.6665 3.18036 3.6665 3.66659V7.33325" stroke="#9293AC" stroke-width="1.58889" stroke-linecap="round" stroke-linejoin="round" />
  <path d="M12.8335 1.83325V5.49992C12.8335 5.98615 13.0267 6.45246 13.3705 6.79628C13.7143 7.1401 14.1806 7.33325 14.6668 7.33325H18.3335" fill="#CCCCD8" />
  <path d="M12.8335 1.83325V5.49992C12.8335 5.98615 13.0267 6.45246 13.3705 6.79628C13.7143 7.1401 14.1806 7.33325 14.6668 7.33325H18.3335" stroke="#9293AC" stroke-width="1.58889" stroke-linecap="round" stroke-linejoin="round" />
  <path d="M2.75113 12.0083C2.46863 12.1714 2.23475 12.4069 2.07362 12.6905C1.91248 12.9741 1.82992 13.2955 1.83446 13.6217V16.5917C1.82385 16.9182 1.90068 17.2416 2.05701 17.5285C2.21334 17.8154 2.44348 18.0553 2.72363 18.2233L5.50113 19.8917C5.78226 20.0591 6.10308 20.1483 6.4303 20.1499C6.75751 20.1515 7.0792 20.0655 7.36196 19.9008L10.0845 18.2417C10.367 18.0786 10.6008 17.8431 10.762 17.5595C10.9231 17.2759 11.0057 16.9545 11.0011 16.6283V13.6583C11.0117 13.3318 10.9349 13.0084 10.7786 12.7215C10.6223 12.4346 10.3921 12.1948 10.112 12.0267L7.33446 10.3583C7.05334 10.1909 6.73251 10.1017 6.4053 10.1001C6.07808 10.0985 5.75639 10.1845 5.47363 10.3492L2.75113 12.0083Z" fill="#CCCCD8" stroke="#9293AC" stroke-width="1.58889" stroke-linecap="round" stroke-linejoin="round" />
  <path d="M6.4165 15.5833V20.1666" stroke="#9293AC" stroke-width="1.58889" stroke-linecap="round" stroke-linejoin="round" />
  <path d="M10.727 13.0166L6.41868 15.5833L2.11035 13.0166" stroke="#9293AC" stroke-width="1.58889" stroke-linecap="round" stroke-linejoin="round" />
</svg>