<svg width="22" height="22" viewBox="0 0 22 22" fill="none" xmlns="http://www.w3.org/2000/svg">
<path d="M13.2915 20.1667H16.4998C16.9861 20.1667 17.4524 19.9735 17.7962 19.6297C18.14 19.2859 18.3332 18.8196 18.3332 18.3333V6.41667L13.7498 1.83334H5.49984C5.01361 1.83334 4.54729 2.02649 4.20347 2.37031C3.85966 2.71412 3.6665 3.18044 3.6665 3.66667V7.33334" stroke="#1A8915" stroke-width="1.58889" stroke-linecap="round" stroke-linejoin="round"/>
<path d="M12.8335 1.83334V5.5C12.8335 5.98623 13.0267 6.45255 13.3705 6.79637C13.7143 7.14018 14.1806 7.33334 14.6668 7.33334H18.3335" fill="#B7DDB5"/>
<path d="M12.8335 1.83334V5.5C12.8335 5.98623 13.0267 6.45255 13.3705 6.79637C13.7143 7.14018 14.1806 7.33334 14.6668 7.33334H18.3335" stroke="#1A8915" stroke-width="1.58889" stroke-linecap="round" stroke-linejoin="round"/>
<path d="M2.75113 12.0083C2.46863 12.1714 2.23475 12.4068 2.07362 12.6904C1.91248 12.974 1.82992 13.2955 1.83446 13.6216V16.5916C1.82385 16.9182 1.90068 17.2416 2.05701 17.5285C2.21334 17.8153 2.44348 18.0552 2.72363 18.2233L5.50113 19.8916C5.78226 20.0591 6.10308 20.1482 6.4303 20.1499C6.75751 20.1515 7.0792 20.0655 7.36196 19.9008L10.0845 18.2416C10.367 18.0786 10.6008 17.8431 10.762 17.5595C10.9231 17.2759 11.0057 16.9544 11.0011 16.6283V13.6583C11.0117 13.3318 10.9349 13.0083 10.7786 12.7215C10.6223 12.4346 10.3921 12.1947 10.112 12.0266L7.33446 10.3583C7.05334 10.1908 6.73251 10.1017 6.4053 10.1001C6.07808 10.0985 5.75639 10.1844 5.47363 10.3491L2.75113 12.0083Z" fill="#B7DDB5" stroke="#1A8915" stroke-width="1.58889" stroke-linecap="round" stroke-linejoin="round"/>
<path d="M6.4165 15.5833V20.1667" stroke="#1A8915" stroke-width="1.58889" stroke-linecap="round" stroke-linejoin="round"/>
<path d="M10.727 13.0167L6.41868 15.5834L2.11035 13.0167" stroke="#1A8915" stroke-width="1.58889" stroke-linecap="round" stroke-linejoin="round"/>
</svg>
