<svg width="19" height="19" viewBox="0 0 19 19" fill="none" xmlns="http://www.w3.org/2000/svg">
<g clip-path="url(#clip0_662_11502)">
<path d="M10.4063 16.8149C8.91073 17 7.3944 16.7222 6.06161 16.019C4.72882 15.3157 3.64362 14.2208 2.95227 12.8819C2.26091 11.5429 1.99662 10.0241 2.19502 8.53029C2.39341 7.03646 3.04495 5.63935 4.06184 4.52723C5.07872 3.4151 6.41208 2.64142 7.88222 2.31043C9.35237 1.97945 10.8886 2.10708 12.284 2.67612C13.6794 3.24515 14.8668 4.22825 15.6862 5.49293C16.5057 6.7576 16.9177 8.24308 16.8669 9.74916" stroke="black" stroke-width="1.38796" stroke-linecap="round" stroke-linejoin="round"/>
<path d="M9.5 5.07793V9.50001L10.6512 10.0756" stroke="black" stroke-width="1.38796" stroke-linecap="round" stroke-linejoin="round"/>
<path d="M12.4474 13.453L16.5219 12.5696L17.4052 16.6441" stroke="black" stroke-width="1.38796" stroke-linecap="round" stroke-linejoin="round"/>
<path d="M13.3322 17.5274L16.5234 12.5696" stroke="black" stroke-width="1.38796" stroke-linecap="round" stroke-linejoin="round"/>
</g>
<defs>
<clipPath id="clip0_662_11502">
<rect width="17.6883" height="17.6883" fill="white" transform="translate(0.65625 0.655853)"/>
</clipPath>
</defs>
</svg>
