<svg width="25" height="26" viewBox="0 0 25 26" fill="none" xmlns="http://www.w3.org/2000/svg">
<path d="M3.02214 13.9355C2.72143 14.1162 2.47248 14.3714 2.29939 14.6766C2.1263 14.9817 2.03495 15.3264 2.03418 15.6772V18.9772C2.03495 19.328 2.1263 19.6727 2.29939 19.9778C2.47248 20.2829 2.72143 20.5382 3.02214 20.7188L6.0777 22.5522C6.39452 22.7425 6.75716 22.8431 7.12677 22.8431C7.49638 22.8431 7.85902 22.7425 8.17584 22.5522L12.2194 20.1281V14.5263L7.12677 11.4707L3.02214 13.9355Z" stroke="#9293AC" stroke-width="1.58889" stroke-linecap="round" stroke-linejoin="round"/>
<path d="M7.12953 17.5825L2.30176 14.6797" stroke="#9293AC" stroke-width="1.58889" stroke-linecap="round" stroke-linejoin="round"/>
<path d="M7.12891 17.5829L12.2215 14.5273" stroke="#9293AC" stroke-width="1.58889" stroke-linecap="round" stroke-linejoin="round"/>
<path d="M7.12891 17.582V22.8478" stroke="#9293AC" stroke-width="1.58889" stroke-linecap="round" stroke-linejoin="round"/>
<path d="M12.2227 14.5263V20.1281L16.2662 22.5522C16.583 22.7425 16.9456 22.8431 17.3152 22.8431C17.6849 22.8431 18.0475 22.7425 18.3643 22.5522L21.4199 20.7188C21.7206 20.5382 21.9695 20.2829 22.1426 19.9778C22.3157 19.6727 22.4071 19.328 22.4078 18.9772V15.6772C22.4071 15.3264 22.3157 14.9817 22.1426 14.6766C21.9695 14.3714 21.7206 14.1162 21.4199 13.9355L17.3152 11.4707L12.2227 14.5263Z" stroke="#9293AC" stroke-width="1.58889" stroke-linecap="round" stroke-linejoin="round"/>
<path d="M17.3152 17.5829L12.2227 14.5273" stroke="#9293AC" stroke-width="1.58889" stroke-linecap="round" stroke-linejoin="round"/>
<path d="M17.3125 17.5825L22.1403 14.6797" stroke="#9293AC" stroke-width="1.58889" stroke-linecap="round" stroke-linejoin="round"/>
<path d="M17.3125 17.582V22.8478" stroke="#9293AC" stroke-width="1.58889" stroke-linecap="round" stroke-linejoin="round"/>
<path d="M8.11687 5.27854C7.81616 5.4592 7.5672 5.71447 7.39412 6.0196C7.22103 6.32473 7.12968 6.6694 7.12891 7.02021V11.4711L12.2215 14.5267L17.3141 11.4711V7.02021C17.3133 6.6694 17.222 6.32473 17.0489 6.0196C16.8758 5.71447 16.6268 5.4592 16.3261 5.27854L13.2706 3.44521C12.9537 3.25486 12.5911 3.1543 12.2215 3.1543C11.8519 3.1543 11.4892 3.25486 11.1724 3.44521L8.11687 5.27854Z" fill="#CCCCD8" stroke="#9293AC" stroke-width="1.58889" stroke-linecap="round" stroke-linejoin="round"/>
<path d="M12.2233 8.92621L7.39551 6.02344" stroke="#9293AC" stroke-width="1.58889" stroke-linecap="round" stroke-linejoin="round"/>
<path d="M12.2227 8.92621L17.0504 6.02344" stroke="#9293AC" stroke-width="1.58889" stroke-linecap="round" stroke-linejoin="round"/>
<path d="M12.2227 14.5276V8.92578" stroke="#9293AC" stroke-width="1.58889" stroke-linecap="round" stroke-linejoin="round"/>
</svg>
