<svg width="25" height="26" viewBox="0 0 25 26" fill="none" xmlns="http://www.w3.org/2000/svg">
    <path d="M3.02214 13.937C2.72143 14.1176 2.47248 14.3729 2.29939 14.678C2.1263 14.9832 2.03495 15.3278 2.03418 15.6786V18.9786C2.03495 19.3295 2.1263 19.6741 2.29939 19.9793C2.47248 20.2844 2.72143 20.5396 3.02214 20.7203L6.0777 22.5536C6.39452 22.744 6.75716 22.8446 7.12677 22.8446C7.49638 22.8446 7.85902 22.744 8.17584 22.5536L12.2194 20.1296V14.5277L7.12677 11.4722L3.02214 13.937Z" stroke="#1A8915" stroke-width="1.58889" stroke-linecap="round" stroke-linejoin="round"/>
    <path d="M7.12953 17.5837L2.30176 14.6809" stroke="#1A8915" stroke-width="1.58889" stroke-linecap="round" stroke-linejoin="round"/>
    <path d="M7.12891 17.5834L12.2215 14.5278" stroke="#1A8915" stroke-width="1.58889" stroke-linecap="round" stroke-linejoin="round"/>
    <path d="M7.12891 17.5833V22.849" stroke="#1A8915" stroke-width="1.58889" stroke-linecap="round" stroke-linejoin="round"/>
    <path d="M12.2227 14.5277V20.1296L16.2662 22.5536C16.583 22.744 16.9456 22.8446 17.3152 22.8446C17.6849 22.8446 18.0475 22.744 18.3643 22.5536L21.4199 20.7203C21.7206 20.5396 21.9695 20.2844 22.1426 19.9793C22.3157 19.6741 22.4071 19.3295 22.4078 18.9786V15.6786C22.4071 15.3278 22.3157 14.9832 22.1426 14.678C21.9695 14.3729 21.7206 14.1176 21.4199 13.937L17.3152 11.4722L12.2227 14.5277Z" stroke="#1A8915" stroke-width="1.58889" stroke-linecap="round" stroke-linejoin="round"/>
    <path d="M17.3152 17.5834L12.2227 14.5278" stroke="#1A8915" stroke-width="1.58889" stroke-linecap="round" stroke-linejoin="round"/>
    <path d="M17.3125 17.5837L22.1403 14.6809" stroke="#1A8915" stroke-width="1.58889" stroke-linecap="round" stroke-linejoin="round"/>
    <path d="M17.3125 17.5833V22.849" stroke="#1A8915" stroke-width="1.58889" stroke-linecap="round" stroke-linejoin="round"/>
    <path d="M8.11687 5.28C7.81616 5.46067 7.5672 5.71593 7.39412 6.02107C7.22103 6.3262 7.12968 6.67086 7.12891 7.02167V11.4726L12.2215 14.5282L17.3141 11.4726V7.02167C17.3133 6.67086 17.222 6.3262 17.0489 6.02107C16.8758 5.71593 16.6268 5.46067 16.3261 5.28L13.2706 3.44667C12.9537 3.25632 12.5911 3.15576 12.2215 3.15576C11.8519 3.15576 11.4892 3.25632 11.1724 3.44667L8.11687 5.28Z" fill="#B7DDB5" stroke="#1A8915" stroke-width="1.58889" stroke-linecap="round" stroke-linejoin="round"/>
    <path d="M12.2233 8.92597L7.39551 6.02319" stroke="#1A8915" stroke-width="1.58889" stroke-linecap="round" stroke-linejoin="round"/>
    <path d="M12.2227 8.92597L17.0504 6.02319" stroke="#1A8915" stroke-width="1.58889" stroke-linecap="round" stroke-linejoin="round"/>
    <path d="M12.2227 14.5279V8.92603" stroke="#1A8915" stroke-width="1.58889" stroke-linecap="round" stroke-linejoin="round"/>
</svg>
