<svg width="21" height="21" viewBox="0 0 21 21" fill="none" xmlns="http://www.w3.org/2000/svg">
<path d="M9.64437 13.066H11.3553C11.809 13.066 12.2442 12.8857 12.5651 12.5649C12.8859 12.244 13.0662 11.8089 13.0662 11.3551C13.0662 10.9013 12.8859 10.4662 12.5651 10.1453C12.2442 9.82445 11.809 9.6442 11.3553 9.6442H8.78892C8.27565 9.6442 7.84793 9.81529 7.59129 10.1575L2.80078 14.7769" stroke="#111220" stroke-width="1.3" stroke-linecap="round" stroke-linejoin="round"/>
<path d="M6.22266 18.1991L7.59137 17.0014C7.84801 16.6593 8.27573 16.4882 8.789 16.4882H12.2108C13.1518 16.4882 14.0072 16.146 14.606 15.4616L18.5411 11.6977C18.8712 11.3857 19.0639 10.9554 19.0767 10.5014C19.0896 10.0474 18.9215 9.60685 18.6095 9.27674C18.2976 8.94663 17.8673 8.75397 17.4133 8.74113C16.9593 8.7283 16.5187 8.89634 16.1886 9.2083L12.5957 12.5446" stroke="#111220" stroke-width="1.3" stroke-linecap="round" stroke-linejoin="round"/>
<path d="M1.94531 13.9213L7.078 19.054" stroke="#111220" stroke-width="1.3" stroke-linecap="round" stroke-linejoin="round"/>
<path d="M13.9222 10.414C15.2923 10.414 16.403 9.30332 16.403 7.93322C16.403 6.56311 15.2923 5.45242 13.9222 5.45242C12.5521 5.45242 11.4414 6.56311 11.4414 7.93322C11.4414 9.30332 12.5521 10.414 13.9222 10.414Z" stroke="#111220" stroke-width="1.3" stroke-linecap="round" stroke-linejoin="round"/>
<path d="M5.36713 7.07819C6.78448 7.07819 7.93347 5.9292 7.93347 4.51185C7.93347 3.0945 6.78448 1.9455 5.36713 1.9455C3.94977 1.9455 2.80078 3.0945 2.80078 4.51185C2.80078 5.9292 3.94977 7.07819 5.36713 7.07819Z" stroke="#111220" stroke-width="1.3" stroke-linecap="round" stroke-linejoin="round"/>
</svg>
