<svg width="25" height="25" viewBox="0 0 25 25" fill="none" xmlns="http://www.w3.org/2000/svg">
<path d="M15.6 2.80005H6.6C6.06957 2.80005 5.56086 3.01076 5.18579 3.38584C4.81071 3.76091 4.6 4.26962 4.6 4.80005V20.8C4.6 21.3305 4.81071 21.8392 5.18579 22.2143C5.56086 22.5893 6.06957 22.8 6.6 22.8H18.6C19.1304 22.8 19.6391 22.5893 20.0142 22.2143C20.3893 21.8392 20.6 21.3305 20.6 20.8V7.80005L15.6 2.80005Z" stroke="white" stroke-width="1.2" stroke-linecap="round" stroke-linejoin="round"/>
<path d="M14.6 2.80005V6.80005C14.6 7.33048 14.8107 7.83919 15.1858 8.21426C15.5609 8.58934 16.0696 8.80005 16.6 8.80005H20.6" stroke="white" stroke-width="1.2" stroke-linecap="round" stroke-linejoin="round"/>
<path d="M16.6 14.8H8.6" stroke="white" stroke-width="1.2" stroke-linecap="round" stroke-linejoin="round"/>
<path d="M16.6 18.8H8.6" stroke="white" stroke-width="1.2" stroke-linecap="round" stroke-linejoin="round"/>
<path d="M10.6 4.76685V12.4335" stroke="white" stroke-width="0.919995" stroke-linecap="round" stroke-linejoin="round"/>
<path d="M12.5166 5.91675H9.64165C9.28582 5.91675 8.94456 6.0581 8.69295 6.30971C8.44134 6.56132 8.29999 6.90258 8.29999 7.25841C8.29999 7.61424 8.44134 7.95549 8.69295 8.2071C8.94456 8.45871 9.28582 8.60007 9.64165 8.60007H11.5583C11.9141 8.60007 12.2554 8.74142 12.507 8.99303C12.7586 9.24464 12.9 9.5859 12.9 9.94173C12.9 10.2976 12.7586 10.6388 12.507 10.8904C12.2554 11.142 11.9141 11.2834 11.5583 11.2834H8.29999" stroke="white" stroke-width="0.919995" stroke-linecap="round" stroke-linejoin="round"/>
</svg>
