<svg width="22" height="22" viewBox="0 0 22 22" fill="none" xmlns="http://www.w3.org/2000/svg">
    <path d="M13.2913 13.2915C11.9163 12.3748 11.1113 11.9165 9.16634 11.9165C7.22142 11.9165 5.35616 12.6891 3.98089 14.0644C2.60562 15.4397 1.83301 17.3049 1.83301 19.2498" stroke="#1A8915" stroke-width="1.58889" stroke-linecap="round" stroke-linejoin="round"/>
    <path d="M9.16634 11.9167C11.6976 11.9167 13.7497 9.86464 13.7497 7.33333C13.7497 4.80203 11.6976 2.75 9.16634 2.75C6.63504 2.75 4.58301 4.80203 4.58301 7.33333C4.58301 9.86464 6.63504 11.9167 9.16634 11.9167Z" stroke="#1A8915" stroke-width="1.58889" stroke-linecap="round" stroke-linejoin="round"/>
    <path d="M16.3446 19.6916C18.1917 19.6916 19.6892 18.1942 19.6892 16.347C19.6892 14.4999 18.1917 13.0024 16.3446 13.0024C14.4974 13.0024 13 14.4999 13 16.347C13 18.1942 14.4974 19.6916 16.3446 19.6916Z" fill="#B7DDB5" stroke="#1A8915" stroke-width="1.93243" stroke-linecap="round" stroke-linejoin="round"/>
    <path d="M20.4721 17.9082L19.4688 17.5737" stroke="#1A8915" stroke-width="1.93243" stroke-linecap="round" stroke-linejoin="round"/>
    <path d="M13.2251 15.1211L12.2217 14.7866" stroke="#1A8915" stroke-width="1.93243" stroke-linecap="round" stroke-linejoin="round"/>
    <path d="M14.79 20.4721L15.1245 19.4688" stroke="#1A8915" stroke-width="1.93243" stroke-linecap="round" stroke-linejoin="round"/>
    <path d="M17.5732 13.2255L17.9077 12.2222" stroke="#1A8915" stroke-width="1.93243" stroke-linecap="round" stroke-linejoin="round"/>
    <path d="M18.1247 20.4723L17.6787 19.3574" stroke="#1A8915" stroke-width="1.93243" stroke-linecap="round" stroke-linejoin="round"/>
    <path d="M15.0075 13.337L14.5615 12.2222" stroke="#1A8915" stroke-width="1.93243" stroke-linecap="round" stroke-linejoin="round"/>
    <path d="M12.2217 18.131L13.3365 17.6851" stroke="#1A8915" stroke-width="1.93243" stroke-linecap="round" stroke-linejoin="round"/>
    <path d="M19.3545 15.0094L20.4694 14.5635" stroke="#1A8915" stroke-width="1.93243" stroke-linecap="round" stroke-linejoin="round"/>
</svg>
