<svg width="22" height="22" viewBox="0 0 22 22" fill="none" xmlns="http://www.w3.org/2000/svg">
<path d="M13.2918 13.2917C11.9168 12.3751 11.1118 11.9167 9.16683 11.9167C7.22191 11.9167 5.35665 12.6894 3.98138 14.0646C2.60611 15.4399 1.8335 17.3052 1.8335 19.2501" stroke="#9293AC" stroke-width="1.58889" stroke-linecap="round" stroke-linejoin="round" />
<path d="M9.16683 11.9167C11.6981 11.9167 13.7502 9.86464 13.7502 7.33333C13.7502 4.80203 11.6981 2.75 9.16683 2.75C6.63552 2.75 4.5835 4.80203 4.5835 7.33333C4.5835 9.86464 6.63552 11.9167 9.16683 11.9167Z" stroke="#9293AC" stroke-width="1.58889" stroke-linecap="round" stroke-linejoin="round" />
<path d="M16.3446 19.6919C18.1917 19.6919 19.6892 18.1944 19.6892 16.3473C19.6892 14.5001 18.1917 13.0027 16.3446 13.0027C14.4974 13.0027 13 14.5001 13 16.3473C13 18.1944 14.4974 19.6919 16.3446 19.6919Z" fill="#CCCCD8" stroke="#9293AC" stroke-width="1.93243" stroke-linecap="round" stroke-linejoin="round" />
<path d="M20.4726 17.9079L19.4692 17.5735" stroke="#9293AC" stroke-width="1.93243" stroke-linecap="round" stroke-linejoin="round" />
<path d="M13.2251 15.1208L12.2217 14.7864" stroke="#9293AC" stroke-width="1.93243" stroke-linecap="round" stroke-linejoin="round" />
<path d="M14.79 20.4721L15.1245 19.4688" stroke="#9293AC" stroke-width="1.93243" stroke-linecap="round" stroke-linejoin="round" />
<path d="M17.5737 13.2255L17.9082 12.2222" stroke="#9293AC" stroke-width="1.93243" stroke-linecap="round" stroke-linejoin="round" />
<path d="M18.1247 20.4723L17.6787 19.3574" stroke="#9293AC" stroke-width="1.93243" stroke-linecap="round" stroke-linejoin="round" />
<path d="M15.007 13.337L14.561 12.2222" stroke="#9293AC" stroke-width="1.93243" stroke-linecap="round" stroke-linejoin="round" />
<path d="M12.2217 18.131L13.3365 17.6851" stroke="#9293AC" stroke-width="1.93243" stroke-linecap="round" stroke-linejoin="round" />
<path d="M19.3545 15.0092L20.4694 14.5632" stroke="#9293AC" stroke-width="1.93243" stroke-linecap="round" stroke-linejoin="round" />
</svg>