<svg width="13" height="13" viewBox="0 0 13 13" fill="none" xmlns="http://www.w3.org/2000/svg">
<path d="M11.5356 3.65882C11.8237 3.37086 11.9855 2.98027 11.9855 2.57298C11.9856 2.1657 11.8239 1.77507 11.5359 1.48704C11.2479 1.199 10.8573 1.03716 10.4501 1.03711C10.0428 1.03706 9.65214 1.1988 9.36411 1.48676L2.09342 8.75909C1.96693 8.8852 1.87339 9.04048 1.82103 9.21126L1.10137 11.5822C1.08729 11.6293 1.08623 11.6793 1.09829 11.727C1.11036 11.7747 1.1351 11.8182 1.1699 11.8529C1.2047 11.8877 1.24826 11.9123 1.29594 11.9243C1.34363 11.9363 1.39368 11.9352 1.44077 11.921L3.81222 11.2019C3.98283 11.15 4.13809 11.057 4.26439 10.9311L11.5356 3.65882Z" stroke="#111220" stroke-width="1.01538" stroke-linecap="round" stroke-linejoin="round"/>
</svg>
